<?xml version="1.0" encoding="UTF-8"?>
<svg width="28px" height="28px" viewBox="0 0 28 28" version="1.1" xmlns="http://www.w3.org/2000/svg" xmlns:xlink="http://www.w3.org/1999/xlink">
    <title>编组 11</title>
    <g id="页面-1" stroke="none" stroke-width="1" fill="none" fill-rule="evenodd">
        <g id="CircleSwap-选项备份" transform="translate(-827.000000, -136.000000)">
            <g id="编组-11" transform="translate(828.000000, 137.000000)">
                <rect id="矩形" stroke="#D4D4D4" stroke-width="0.5" x="0" y="0" width="26" height="26" rx="5"></rect>
                <g id="编组-9" transform="translate(5.000000, 7.000000)">
                    <path d="M12.4091682,4.99979855 C12.0677522,5.00775098 11.7569394,4.77964011 11.6262376,4.42519242 C11.4955359,4.07074473 11.5717001,3.66251632 11.8180937,3.39687429 L13.1768857,1.87027976 L0.832260119,1.87027976 C0.372615548,1.87027976 0,1.45164847 0,0.935240603 C0,0.41883274 0.372615548,0.000201451838 0.832260119,0.000201451838 L15.1539281,0.000201451838 C15.4953441,-0.00775097922 15.806157,0.220359893 15.9368588,0.574807583 C16.0675605,0.929255272 15.9913962,1.33748368 15.7450027,1.60312571 L12.9934488,4.65631478 C12.8493545,4.85667 12.6378299,4.98101996 12.4091682,4.99979855 L12.4091682,4.99979855 Z" id="路径" fill="#30D683" transform="translate(8.000000, 2.500000) scale(1, -1) translate(-8.000000, -2.500000) "></path>
                    <path d="M15.1745338,11.9997923 L0.846071867,11.9997923 C0.504655877,12.0079905 0.193842998,11.7728315 0.0631412497,11.4074323 C-0.0675604984,11.042033 0.00860377498,10.6211913 0.254997333,10.3473416 L2.89784783,7.2863734 C3.10901843,7.04038849 3.41745373,6.94357056 3.70696915,7.03238997 C3.99648458,7.12120939 4.22309584,7.38217237 4.30144067,7.71697669 C4.3797855,8.05178102 4.29796145,8.40956194 4.08679086,8.65554684 L2.86387803,10.0719332 L15.1677399,10.0719332 C15.6273845,10.0719332 16,10.5034991 16,11.0358627 C16,11.5682264 15.6273845,11.9997923 15.1677399,11.9997923 L15.1745338,11.9997923 Z" id="路径" fill="#888888" transform="translate(8.000000, 9.500000) scale(1, -1) translate(-8.000000, -9.500000) "></path>
                </g>
            </g>
        </g>
    </g>
</svg>