<?xml version="1.0" encoding="UTF-8"?>
<svg width="66px" height="66px" viewBox="0 0 66 66" version="1.1" xmlns="http://www.w3.org/2000/svg" xmlns:xlink="http://www.w3.org/1999/xlink">
    <title>编组 4</title>
    <g id="页面-1" stroke="none" stroke-width="1" fill="none" fill-rule="evenodd">
        <g id="CircleSwap-CIR备份-8" transform="translate(-1264.000000, -492.000000)">
            <g id="编组-4" transform="translate(1264.000000, 492.000000)">
                <rect id="矩形" fill="#F8F8F8" transform="translate(33.000000, 33.000000) scale(-1, 1) translate(-33.000000, -33.000000) " x="0" y="0" width="66" height="66" rx="10"></rect>
                <g id="编组" transform="translate(19.000000, 16.000000)" fill="#30D683" fill-rule="nonzero">
                    <path d="M4.28571522,7.17499927 L4.28571522,5.70791609 C4.28571522,2.59583309 6.5803578,-7.10542736e-15 9.52380981,-7.10542736e-15 L24.7619032,-7.10542736e-15 C27.7053552,-7.10542736e-15 30.0000007,2.59583305 30.0000007,5.70791609 L30.0000007,25.0920808 C30.0000007,28.2041638 27.7053552,30.7999969 24.7619032,30.7999968 L22.6785701,30.7999968 C22.0268762,33.273518 19.7496332,35.0012843 17.1428565,35 L5.71428648,35 C2.55837401,35 7.33359796e-07,32.4927913 7.33359796e-07,29.399997 L7.33359796e-07,12.5999987 C-0.00131268705,10.0453575 1.76171411,7.81365934 4.28571522,7.17499927 Z M22.8571415,27.9999971 L24.7619032,27.9999971 C26.026784,27.9999971 27.1428577,26.7399972 27.1428577,25.0920808 L27.1428577,5.70791609 C27.1428577,4.05999961 26.026784,2.79999973 24.7619032,2.79999973 L9.52380981,2.79999973 C8.25892902,2.79999973 7.14285774,4.05999961 7.14285774,5.70791609 L7.14285774,6.99999928 L17.1428577,6.99999928 C20.297618,6.99999928 22.8571415,9.50833234 22.8571415,12.5999987 L22.8571415,27.9999971 Z M5.71428648,9.79999901 C4.13633025,9.79999901 2.85714396,11.0536016 2.85714396,12.5999987 L2.85714396,29.399997 C2.85714396,30.9458302 4.1369057,32.1999967 5.71428648,32.1999967 L17.1428565,32.1999967 C18.7202373,32.1999967 19.999999,30.9458302 19.999999,29.399997 L19.999999,12.5999987 C19.999999,11.0536016 18.7208127,9.79999901 17.1428565,9.79999901 L5.71428648,9.79999901 Z" id="形状"></path>
                </g>
            </g>
        </g>
    </g>
</svg>