<?xml version="1.0" encoding="UTF-8"?>
<svg width="30px" height="31px" viewBox="0 0 30 31" version="1.1" xmlns="http://www.w3.org/2000/svg" xmlns:xlink="http://www.w3.org/1999/xlink">
    <title>编组</title>
    <g id="页面-1" stroke="none" stroke-width="1" fill="none" fill-rule="evenodd">
        <g id="CircleSwap-兑换-未连接-未填写信息" transform="translate(-945.000000, -438.000000)" fill-rule="nonzero">
            <g id="编组" transform="translate(960.000000, 453.500000) rotate(-90.000000) translate(-960.000000, -453.500000) translate(944.500000, 438.500000)">
                <path d="M2.35352192,10.5 C0.824063617,10.5 -0.154252561,12.7897716 1.01757559,14.1035973 L14.1835269,28.8651953 C14.9389035,29.7116016 16.0618886,29.7116016 16.8169269,28.8651953 L29.9834533,14.1040145 C31.1255494,12.8232183 30.2349072,10.5004171 28.6665842,10.5004171 L2.3534881,10.5 L2.35352192,10.5 Z" id="路径" fill="#30D683" opacity="0.700079055"></path>
                <path d="M2.35352192,0.5 C0.824063617,0.5 -0.154252561,2.78977159 1.01757559,4.10359735 L14.1835269,18.8651953 C14.9389035,19.7116016 16.0618886,19.7116016 16.8169269,18.8651953 L29.9834533,4.10401448 C31.1255494,2.82321829 30.2349072,0.500417136 28.6665842,0.500417136 L2.3534881,0.5 L2.35352192,0.5 Z" id="路径" fill="#5DF9DB" opacity="0.602771577"></path>
            </g>
        </g>
    </g>
</svg>