<?xml version="1.0" encoding="UTF-8"?>
<svg width="215px" height="40px" viewBox="0 0 215 40" version="1.1" xmlns="http://www.w3.org/2000/svg" xmlns:xlink="http://www.w3.org/1999/xlink">
    <title>资源 4</title>
    <g id="页面-1" stroke="none" stroke-width="1" fill="none" fill-rule="evenodd">
        <g id="CircleSwap-兑换-未连接-未填写信息" transform="translate(-110.000000, -40.000000)" fill-rule="nonzero">
            <g id="资源-4" transform="translate(110.000000, 40.000000)">
                <polygon id="路径" fill="#30D683" points="24.58 19.435 24.42 19.565 24.57 19.435"></polygon>
                <path d="M40.0748752,27.3084929 C39.4592346,29.5002185 38.2362729,31.4629578 35.0166389,31.4629578 C33.5466573,31.5335963 32.1266276,30.9293121 31.1730449,29.8273417 C30.6156406,29.0994925 30.1663894,28.2898625 29.9084859,26 C29.6339434,29.6228897 28.7520799,32.9595465 25.9816972,35.6828473 C25.6655574,35.9936144 25.3327787,36.2962034 25,36.5742581 C27.7830273,38.8884894 31.3399693,40.1064344 34.9833611,39.9926958 C42.4708819,39.9926958 48.5524126,35.9036555 50,27.3084929 L40.0748752,27.3084929 Z" id="路径" fill="#5DF9DB"></path>
                <path d="M49,12.6381861 L39.2409357,12.6381861 C38.6350877,10.4554696 37.4315789,8.50079817 34.2549708,8.50079817 C32.8109614,8.43176268 31.4165649,9.03355406 30.4807018,10.1296911 C29.6046784,11.2780605 28.9988304,12.6381861 28.9988304,19.7157257 C28.9988304,20.8640952 28.9988304,21.8658643 29.0479532,22.737322 C28.9824561,27.3389444 28.4912281,31.6066437 25.1590643,34.9540186 C24.8807018,35.2309304 24.594152,35.4996977 24.2994152,35.768465 L24.1766082,35.8743431 L24.1766082,35.8743431 C21.4985365,37.9894993 18.1548388,39.0944098 14.7368421,38.9936729 C7.36842105,38.9936729 1.38362573,34.9214407 0,26.3616086 L9.68538012,26.3616086 C10.2912281,28.5361806 11.4947368,30.4989966 14.6631579,30.4989966 C20.394152,30.4989966 19.4362573,23.5354795 19.4362573,19.7401591 C19.4362573,13.916867 19.2725146,8.46822031 23.3824561,4.38784364 C26.2171859,1.47829605 30.1508533,-0.11179696 34.2222222,0.00612178646 C41.6070175,0.00612178646 47.5754386,4.08649846 49,12.6381861 Z" id="路径" fill="#30D683"></path>
                <circle id="椭圆形" fill="#30D683" cx="17.5" cy="3.5" r="3.5"></circle>
                <circle id="椭圆形" fill="#30D683" cx="9.5" cy="2.5" r="2.5"></circle>
                <circle id="椭圆形" fill="#30D683" cx="4.5" cy="5.5" r="1.5"></circle>
                <circle id="椭圆形" fill="#30D683" cx="2" cy="9" r="1"></circle>
                <circle id="椭圆形" fill="#30D683" cx="0.5" cy="12.5" r="1"></circle>
                <path d="M80.4759772,30.9979976 C78.4145312,31.0459598 76.4275619,30.2304819 74.9995287,28.7503923 C72.9194533,26.6806551 73.0007062,23.8994457 73.0007062,20.9727079 C73.0007062,18.0459702 72.9032027,15.2647608 74.9995287,13.2111934 C76.4355861,11.737497 78.4304067,10.9359003 80.4922278,11.0040127 C84.2298633,11.0040127 87.2524729,13.0737499 87.9756241,17.3991773 L83.035445,17.3991773 C82.8646594,16.1590147 81.7734661,15.2518714 80.5166037,15.3051853 C79.7863496,15.2662224 79.078842,15.5645237 78.5990342,16.1136764 C78.1602683,16.69579 77.8515071,17.3830075 77.8515071,20.964623 C77.8515071,24.5462386 78.1602683,25.2415409 78.5990342,25.8155696 C79.0795762,26.3637152 79.7865661,26.6617983 80.5166037,26.6240607 C81.7761936,26.6769267 82.8684704,25.7653767 83.035445,24.5219839 L88,24.5219839 C87.2362223,28.8878358 84.2136127,30.9979976 80.4759772,30.9979976 Z" id="路径" fill="#5DF9DB"></path>
                <path d="M90,14.477551 L90,11 L95,11 L95,14.477551 L90,14.477551 Z M90,31 L90,16.6 L95,16.6 L95,31 L90,31 Z" id="形状" fill="#30D683"></path>
                <path d="M106.717236,20.8654239 C106.340365,20.3645481 105.76424,20.0669282 105.150285,20.055953 C104.642326,20.0498234 104.156499,20.2703935 103.817334,20.6611265 C103.478168,21.0518595 103.318636,21.5747682 103.37963,22.0958197 L103.37963,31 L99,31 L99,16.1704925 L103.238604,16.1704925 L103.238604,17.3846989 C104.160241,16.4991671 105.372474,16.0074418 106.631054,16.0085983 C107.896228,15.926852 109.130966,16.4312008 110,17.3846989 L106.717236,20.8654239 Z" id="路径" fill="#30D683"></path>
                <path d="M116.950912,30.9968472 C114.274895,30.9968472 110,29.9098843 110,23.5 C110,17.0901157 114.274895,16.0031528 116.950912,16.0031528 C118.833453,15.9476749 120.657886,16.6263449 122,17.8813608 L118.810659,20.9104707 C118.343063,20.3722424 117.651791,20.0541837 116.917251,20.0393019 C116.365187,20.0154537 115.829914,20.2228969 115.453015,20.6067605 C114.906031,21.1502419 114.678822,22.1093269 114.678822,23.5 C114.678822,24.8906731 114.906031,25.8417657 115.453015,26.3852472 C115.829044,26.7711499 116.364066,26.9814157 116.917251,26.9606981 C117.651791,26.9458163 118.343063,26.6277576 118.810659,26.0895293 L122,29.1186392 C120.657886,30.3736551 118.833453,31.0523251 116.950912,30.9968472 Z" id="路径" fill="#30D683"></path>
                <path d="M128.602714,30.9867506 C127.39418,31.0830261 126.202448,30.6513226 125.324742,29.7993091 C124.447036,28.9472956 123.966093,27.7552867 124.001862,26.5205754 L124.001862,11 L128.513926,11 L128.513926,26.1833504 C128.489428,26.4338953 128.578898,26.6820723 128.756737,26.8568752 C128.934577,27.0316781 129.181192,27.1138481 129.426024,27.0798755 L131,27.0798755 L131,30.9538506 L128.602714,30.9867506 Z" id="路径" fill="#30D683"></path>
                <path d="M137.338592,24.9396153 C137.352815,25.5952065 137.637009,26.2149252 138.122436,26.6488835 C138.607864,27.0828419 139.25032,27.2915214 139.894417,27.22445 C141.025185,27.3149077 142.132256,26.8622911 142.884102,26.0021433 L145.518811,28.6704467 C144.086405,30.2643351 142.018686,31.1160661 139.894417,30.9872371 C136.691748,30.9872371 133,29.8128641 133,23.4936186 C133,18.7002591 135.697816,16 139.492112,16 C143.688714,16 146,19.1076947 146,22.9503712 L146,24.9396153 L137.338592,24.9396153 Z M141.401092,20.8173262 C141.016556,20.1119036 140.283804,19.6739173 139.488167,19.6739173 C138.692531,19.6739173 137.959779,20.1119036 137.575243,20.8173262 C137.408948,21.1768891 137.327911,21.5708295 137.338592,21.9677325 L141.645631,21.9677325 C141.653269,21.570251 141.569552,21.1764143 141.401092,20.8173262 Z" id="形状" fill="#30D683"></path>
                <path d="M154.43001,31 C151.432218,31 148.98241,30.4505051 147,28.4060606 L150.086436,25.3191919 C151.101817,26.3373737 152.882763,26.7010101 154.454186,26.7010101 C156.347952,26.7010101 157.258571,26.0626263 157.258571,24.9313131 C157.298131,24.4939359 157.158483,24.0592485 156.871759,23.7272727 C156.510281,23.416386 156.057667,23.2320045 155.582387,23.2020202 L153.221223,22.9191919 C151.753161,22.7986578 150.368122,22.1867627 149.288636,21.1818182 C148.318375,20.0950724 147.827229,18.6612813 147.926737,17.2060606 C147.926737,13.6181818 150.626361,11 155.074696,11 C157.879082,11 159.998488,11.6626263 161.674672,13.3434343 L158.652705,16.3737374 C157.630287,15.4840506 156.282752,15.0648987 154.9377,15.2181818 C153.261516,15.2181818 152.576537,16.179798 152.576537,17.0363636 C152.578358,17.3803953 152.717696,17.7093234 152.963348,17.9494949 C153.334974,18.2868407 153.809018,18.4889365 154.309131,18.5232323 L156.670295,18.8545455 C158.095712,18.9575673 159.448444,19.525125 160.522296,20.4707071 C161.58164,21.6390715 162.109864,23.195924 161.980898,24.769697 C161.988957,28.7858586 158.547944,31 154.43001,31 Z" id="路径" fill="#5DF9DB"></path>
                <polygon id="路径" fill="#30D683" points="180.436302 31 176.740699 31 174.004134 22.7728758 171.267569 31 167.571965 31 163 16 167.877865 16 169.771139 23.7777778 172.391958 16 175.608042 16 178.228861 23.7777778 180.122135 16 185 16"></polygon>
                <path d="M194.439451,30.8555486 L194.439451,29.6469344 C193.574278,30.5757328 192.311395,31.0716108 191.014862,30.9916177 C189.656697,31.0379708 188.334862,30.5658486 187.339694,29.6789507 C186.435997,28.7466619 185.95534,27.5088063 186.003269,26.2372018 C186.003269,24.0280793 187.573568,21.9790381 191.215326,21.9790381 L194.322513,21.9790381 L194.322513,21.5948429 C194.322513,20.2581637 193.637596,19.7619115 192.017181,19.7619115 C191.081369,19.6945413 190.168454,20.0605354 189.5615,20.7464118 L186.654776,17.9609964 C188.225075,16.4642359 189.653379,16 192.242702,16 C196.636199,16 199,17.7448866 199,21.3227046 L199,30.8555486 L194.439451,30.8555486 Z M194.322513,24.9565511 L191.958712,24.9565511 C191.048273,24.9565511 190.480292,25.4447992 190.480292,26.1251449 C190.480292,26.8054906 190.989804,27.3577712 192.017181,27.3577712 C192.689187,27.4521112 193.369885,27.2523105 193.87147,26.8134947 C194.23486,26.4039057 194.398908,25.8653434 194.322513,25.3327423 L194.322513,24.9565511 Z" id="形状" fill="#30D683"></path>
                <path d="M213.595866,29.9299255 C212.615609,30.8568619 211.305552,31.3607249 209.952154,31.3313387 C208.704432,31.4065455 207.483576,30.9501531 206.595672,30.076585 L206.595672,36 L202,36 L202,16.1683741 L206.456161,16.1683741 L206.456161,17.3905367 C207.353864,16.4474396 208.62215,15.9413791 209.927535,16.0054191 C211.282274,15.966508 212.598688,16.4547982 213.595866,17.3660935 C215.081253,18.8408364 214.999187,21.439969 214.999187,23.6480095 C214.999187,25.85605 215.081253,28.4551826 213.595866,29.9299255 Z M208.499594,20.1526243 C206.79263,20.1526243 206.595672,21.5132987 206.595672,23.6806005 C206.595672,25.8479023 206.79263,27.2085767 208.499594,27.2085767 C210.206558,27.2085767 210.403515,25.8479023 210.403515,23.6806005 C210.403515,21.5132987 210.206558,20.1200333 208.499594,20.1200333 L208.499594,20.1526243 Z" id="形状" fill="#30D683"></path>
            </g>
        </g>
    </g>
</svg>