<?xml version="1.0" encoding="UTF-8"?>
<svg width="56px" height="56px" viewBox="0 0 56 56" version="1.1" xmlns="http://www.w3.org/2000/svg" xmlns:xlink="http://www.w3.org/1999/xlink">
    <title>编组 2</title>
    <g id="页面-1" stroke="none" stroke-width="1" fill="none" fill-rule="evenodd">
        <g id="CircleSwap-选项备份" transform="translate(-140.000000, -120.000000)">
            <g id="编组-2" transform="translate(140.000000, 120.000000)">
                <rect id="矩形" fill="rgba(44, 44, 44, 0.5)" x="0" y="0" width="56" height="56" rx="7"></rect>
                <g id="编组" transform="translate(10.000000, 10.000000)" fill="#FFFFFF" fill-rule="nonzero">
                    <path d="M4.50000025,2.57175028 C3.43462527,2.57175028 2.57175028,3.43462527 2.57175028,4.50000025 L2.57175028,12.2141251 C2.57175028,13.2795001 3.43462527,14.1435001 4.50000025,14.1435001 L12.2141251,14.1435001 C13.2795001,14.1435001 14.1423751,13.2795001 14.1423751,12.2141251 L14.1423751,4.50000025 C14.1423751,3.43462527 13.2795001,2.57175028 12.2141251,2.57175028 L4.50000025,2.57175028 Z M3.85762526,3.28378496e-07 L12.8576251,3.28378496e-07 C14.9876932,0.000621520609 16.714125,1.7275571 16.714125,3.85762526 L16.714125,12.8576251 C16.713504,14.9872539 14.9872539,16.713504 12.8576251,16.714125 L3.85762526,16.714125 C1.72799621,16.714125 0.00124245672,14.9883788 1.64098871e-07,12.8587501 L1.64098871e-07,3.85875026 C-0.00029809702,2.83544961 0.40599733,1.85395857 1.12947469,1.13027023 C1.85295204,0.406581885 2.83432457,3.28378496e-07 3.85762526,3.28378496e-07 Z M3.85762526,21.8576249 C3.14662527,21.8576249 2.57175028,22.4324999 2.57175028,23.1423749 L2.57175028,32.1423747 C2.57175028,32.8533747 3.14662527,33.4282497 3.85762526,33.4282497 L12.8576251,33.4282497 C13.5663751,33.4282497 14.1423751,32.8533747 14.1423751,32.1423747 L14.1423751,23.1423749 C14.1423751,22.4336249 13.5675001,21.8576249 12.8576251,21.8576249 L3.85762526,21.8576249 Z M3.85762526,19.285875 L12.8576251,19.285875 C14.9872539,19.286496 16.713504,21.0127461 16.714125,23.1423749 L16.714125,32.1423747 C16.714125,34.2720038 14.9883788,35.9987575 12.8587501,35.9999998 L3.85875026,35.9999998 C2.83544961,36.0002981 1.85395857,35.5940027 1.13027023,34.8705253 C0.406581885,34.147048 3.28378496e-07,33.1656754 3.28378496e-07,32.1423747 L3.28378496e-07,23.1423749 C0.000621520609,21.0123068 1.7275571,19.285875 3.85762526,19.285875 Z M23.1412499,2.57175028 C22.4324999,2.57175028 21.8564999,3.14662527 21.8564999,3.85762526 L21.8564999,12.8576251 C21.8564999,13.5663751 22.4313749,14.1435001 23.1412499,14.1435001 L32.1412497,14.1435001 C32.8522497,14.1435001 33.4271247,13.5675001 33.4271247,12.8576251 L33.4271247,3.85762526 C33.4271247,3.14662527 32.8522497,2.57175028 32.1412497,2.57175028 L23.1412499,2.57175028 Z M23.1412499,1.64098871e-07 L32.1412497,1.64098871e-07 C33.1645504,-0.00029809702 34.1460414,0.40599733 34.8697298,1.12947469 C35.5934181,1.85295204 35.9999997,2.83432457 35.9999997,3.85762526 L35.9999997,12.8576251 C35.9993785,14.9876932 34.2724429,16.714125 32.1423747,16.714125 L23.1423749,16.714125 C21.0127461,16.713504 19.286496,14.9872539 19.285875,12.8576251 L19.285875,3.85762526 C19.285875,1.72799621 21.0116212,0.00124245672 23.1412499,1.64098871e-07 L23.1412499,1.64098871e-07 Z M23.1412499,21.8576249 C22.4324999,21.8576249 21.8564999,22.4324999 21.8564999,23.1423749 L21.8564999,32.1423747 C21.8564999,32.8533747 22.4313749,33.4282497 23.1412499,33.4282497 L32.1412497,33.4282497 C32.8522497,33.4282497 33.4271247,32.8533747 33.4271247,32.1423747 L33.4271247,23.1423749 C33.4271247,22.4336249 32.8522497,21.8576249 32.1412497,21.8576249 L23.1412499,21.8576249 Z M23.1412499,19.2858748 L32.1412497,19.2858748 C34.2713181,19.2852534 35.9987574,21.0111819 35.9999998,23.1412499 L35.9999998,32.1412497 C36.0002981,33.1645504 35.5940027,34.1460414 34.8705253,34.8697298 C34.147048,35.5934181 33.1656754,35.9999997 32.1423747,35.9999997 L23.1423749,35.9999997 C21.0123068,35.9993785 19.285875,34.2724429 19.285875,32.1423747 L19.285875,23.1423749 C19.286496,21.0127461 21.0127461,19.286496 23.1423749,19.2858748 L23.1412499,19.2858748 Z" id="形状"></path>
                </g>
            </g>
        </g>
    </g>
</svg>