<?xml version="1.0" encoding="UTF-8"?>
<svg width="21px" height="21px" viewBox="0 0 21 21" version="1.1" xmlns="http://www.w3.org/2000/svg" xmlns:xlink="http://www.w3.org/1999/xlink">
    <title>编组 15</title>
    <g id="页面-1" stroke="none" stroke-width="1" fill="none" fill-rule="evenodd">
        <g id="iPhone-11-Pro备份-7" transform="translate(-339.000000, -100.000000)">
            <g id="编组-15" transform="translate(339.000000, 100.000000)">
                <rect id="矩形" x="0" y="0" width="21" height="21" rx="3"></rect>
                <g id="编组-14" transform="translate(4.000000, 5.000000)" fill="#979797" fill-rule="nonzero">
                    <path d="M12.5,0 C12.7761424,0 13,0.223857625 13,0.5 C13,0.745459889 12.8231248,0.94960837 12.5898756,0.991944331 L12.5,1 L0.5,1 C0.223857625,1 0,0.776142375 0,0.5 C0,0.254540111 0.176875161,0.0503916296 0.410124368,0.00805566941 L0.5,0 L12.5,0 Z" id="直线-4"></path>
                    <path d="M12.5,5 C12.7761424,5 13,5.22385763 13,5.5 C13,5.74545989 12.8231248,5.94960837 12.5898756,5.99194433 L12.5,6 L0.5,6 C0.223857625,6 0,5.77614237 0,5.5 C0,5.25454011 0.176875161,5.05039163 0.410124368,5.00805567 L0.5,5 L12.5,5 Z" id="直线-4备份"></path>
                    <path d="M12.5,10 C12.7761424,10 13,10.2238576 13,10.5 C13,10.7454599 12.8231248,10.9496084 12.5898756,10.9919443 L12.5,11 L0.5,11 C0.223857625,11 0,10.7761424 0,10.5 C0,10.2545401 0.176875161,10.0503916 0.410124368,10.0080557 L0.5,10 L12.5,10 Z" id="直线-4备份-2"></path>
                </g>
            </g>
        </g>
    </g>
</svg>