<?xml version="1.0" encoding="UTF-8"?>
<svg width="56px" height="56px" viewBox="0 0 56 56" version="1.1" xmlns="http://www.w3.org/2000/svg" xmlns:xlink="http://www.w3.org/1999/xlink">
    <title>编组 3</title>
    <g id="页面-1" stroke="none" stroke-width="1" fill="none" fill-rule="evenodd">
        <g id="CircleSwap-选项备份" transform="translate(-55.000000, -120.000000)">
            <g id="编组-3" transform="translate(55.000000, 120.000000)">
                <rect id="矩形备份" fill="#FFFFF" x="0" y="0" width="56" height="56" rx="7"></rect>
                <g id="编组" transform="translate(9.000000, 10.000000)" fill="#909091" fill-rule="nonzero">
                    <path d="M19,11 C15.0330232,11 12,14.0330539 12,17.9999805 C12,21.9669071 15.0330232,25 19,25 C22.9669768,25 26,21.9669461 26,17.9999805 C26,14.0330148 22.9669768,11 19,11 Z M19,22.6673898 C16.4252925,22.6600685 14.3398989,20.5746808 14.3325776,17.9999805 C14.3325776,15.4339021 16.4339144,13.3325711 19,13.3325711 C21.5660856,13.3325711 23.6674224,15.4339021 23.6674224,18.0022084 C23.6576565,20.5751684 21.5729753,22.6578536 19,22.6651618 L19,22.6673898 Z" id="形状"></path>
                    <path d="M23.1225095,0 L13.8784941,0 C13.1846249,0 12.7213037,0.463338813 12.7213037,1.15723458 L12.7213037,5.55112636 C11.796926,6.01220053 10.8725086,6.47557907 10.1809039,6.93665324 L6.48104907,4.62444874 C5.90449854,4.3214326 5.19159627,4.52554679 4.86276236,5.08778755 L0.240794405,13.1771063 C-0.220301893,13.8732668 0.0102462559,14.5671625 0.704115535,14.7977195 L4.40170579,17.109924 L4.40170579,19.8899966 L0.704115535,22.1999364 C0.0102462559,22.432758 -0.222566454,23.1266538 0.240794405,23.8182849 L4.86276236,31.9122124 C5.09557507,32.3755115 5.78944435,32.6060685 6.48104907,32.1449943 L10.1809039,29.8327501 C10.8725086,30.293864 11.796926,30.98772 12.7213037,31.218277 L12.7213037,35.8450301 C12.7213037,36.5389258 13.1846249,37 13.8784941,37 L23.1225095,37 C23.8163788,37 24.2796999,36.5389258 24.2796999,35.8450301 L24.2796999,31.4511383 C25.2040776,30.9877995 26.128495,30.5244209 26.8200998,30.0633468 L30.5199546,32.3755513 C31.0965051,32.6785674 31.8094074,32.4744532 32.1382413,31.9122124 L36.7602092,23.8205893 C37.2213055,23.1244289 36.9907574,22.4327978 36.2968881,22.1999762 L32.5992978,19.8900363 L32.5992978,17.1122283 L36.2968881,14.7999841 C36.7602092,14.5694669 36.9907574,13.8733065 36.7602092,13.1816754 L32.1382413,5.0855229 C31.9054286,4.62218409 31.2115593,4.39162714 30.5199546,4.62218409 L26.8178352,6.93887816 C26.1262305,6.47780399 25.2018528,5.78390823 24.2774353,5.55339101 L24.2774353,1.15723458 C24.2774353,0.463338813 23.8141142,0 23.1202449,0 L23.1225095,0 Z M15.03342,2.3122045 L21.9675837,2.3122045 L21.9675837,6.24502213 C21.9675837,6.70609629 22.1980921,7.16943511 22.6614132,7.39999205 C23.8134902,7.87768005 24.9002674,8.49969577 25.8956823,9.25112239 C26.3590432,9.48167934 26.8223643,9.48167934 27.2834209,9.25112239 L30.7505027,7.16943511 L34.2175448,13.1816754 L30.7505027,15.261098 C30.2871816,15.7244368 30.0566334,16.1877756 30.2871816,16.6511144 C30.2871816,17.3450102 30.5199943,17.8060844 30.5199943,18.4999801 C30.5199943,19.1938759 30.5199943,19.6572544 30.2871816,20.3511105 C30.2871816,20.8122244 30.5199943,21.2755632 30.7505027,21.5060804 L34.2175448,23.5877677 L30.7505027,29.6000079 L27.2834209,27.5205853 C26.8497899,27.2891374 26.3293133,27.2891374 25.8956823,27.5205853 C24.9001451,28.27122 23.8133732,28.8924717 22.6614132,29.369451 C22.1980921,29.8327898 21.9675837,30.2961684 21.9675837,30.7572425 L21.9675837,34.6900601 L15.03342,34.6900601 L15.03342,30.7572425 C15.0425241,30.2705342 14.7731706,29.821281 14.3395904,29.6000079 C13.1876304,29.1230287 12.1008585,28.5017769 11.1053213,27.7511423 C10.6716903,27.5196944 10.1512137,27.5196944 9.71758275,27.7511423 L6.25050092,29.6000079 L2.78345881,23.5877677 L6.25050092,21.5083848 C6.71382205,21.2755632 6.9443702,20.8122244 6.71382205,20.3511105 C6.71382205,19.6572544 6.48100934,19.1938759 6.48100934,18.4999801 C6.48100934,17.8061241 6.48100934,17.3450102 6.71382205,16.6511144 C6.9443702,16.1877756 6.71382205,15.7244368 6.25050092,15.4938799 L2.78345881,13.4144572 L6.25050092,7.4022567 L9.71758275,9.48167934 C10.1809039,9.71219656 10.644225,9.71219656 11.1053213,9.48167934 C12.1007363,8.73025271 13.1875134,8.108237 14.3395904,7.630549 C14.7724272,7.40963611 15.0416516,6.9614769 15.03342,6.47557907 L15.03342,2.3122045 Z" id="形状"></path>
                </g>
            </g>
        </g>
    </g>
</svg>