<?xml version="1.0" encoding="UTF-8"?>
<svg width="64px" height="38px" viewBox="0 0 64 38" version="1.1" xmlns="http://www.w3.org/2000/svg" xmlns:xlink="http://www.w3.org/1999/xlink">
    <title>编组 13</title>
    <g id="页面-1" stroke="none" stroke-width="1" fill="none" fill-rule="evenodd">
        <g id="CircleSwap流动性挖矿备份-9" transform="translate(-1071.000000, -1247.000000)">
            <g id="编组-13" transform="translate(1071.000000, 1247.000000)">
                <g id="编组" transform="translate(26.000000, 0.000000)" fill-rule="nonzero">
                    <path d="M19,19 L0,19 C0,29.4945312 8.50546875,38 19,38 C29.4945312,38 38,29.4945312 38,19 C38,8.50546875 29.4945312,0 19,0 C8.50546875,0 0,8.50546875 0,19 L19,19 Z" id="路径" fill="#1BA27A"></path>
                    <polygon id="路径" fill="#FFFFFF" points="27.9099609 9.57421875 9.91933594 9.57421875 9.91933594 13.9271484 16.7585938 13.9271484 16.7585938 20.3099609 21.0892578 20.3099609 21.0892578 13.9271484 27.9099609 13.9271484"></polygon>
                    <path d="M30.4371094,19.3228516 C30.4371094,17.8978516 25.3085938,16.7585937 18.9628906,16.7585937 C12.6171875,16.7585937 7.48867188,17.9164062 7.48867188,19.3228516 C7.48867188,20.5771484 11.4779297,21.6236328 16.7623047,21.85 L16.7623047,31.0085938 L21.0929688,31.0085938 L21.0929688,21.85 C26.4107422,21.6236328 30.4371094,20.5771484 30.4371094,19.3228516 L30.4371094,19.3228516 Z M18.9628906,20.9964844 C13.3185547,20.9964844 8.73925781,20.1021484 8.73925781,19 C8.73925781,17.8978516 13.3185547,17.0035156 18.9628906,17.0035156 C24.6072266,17.0035156 29.1865234,17.8978516 29.1865234,19 C29.1828125,20.1021484 24.6035156,20.9964844 18.9628906,20.9964844 Z" id="形状" fill="#FFFFFF"></path>
                </g>
                <circle id="椭圆形" fill="#FFFFFF" cx="20" cy="19" r="19"></circle>
                <g id="编组" fill-rule="nonzero">
                    <circle id="椭圆形" fill="#0066ED" cx="19" cy="19" r="19"></circle>
                    <polygon id="路径" fill="#FFFFFF" points="18.5973253 8.82142857 18.5109857 8.84386716 15.9622575 9.50580477 13.814009 10.0633543 13.8120578 10.0677444 12.9593924 13.2964586 11.2418667 19.789496 9.41848946 20.2621692 9.05752128 21.6782377 10.865289 21.208979 8.82142857 28.939552 13.6047449 27.6976263 15.6490932 19.9680289 20.8884978 18.6090325 18.9490254 25.9454671 18.4685475 27.7590884 18.0929454 29.1785714 18.0939211 29.1785714 20.8738639 28.4571228 22.8762619 27.9381091 22.8777252 27.9376213 25.5864501 27.2351967 25.9469305 25.8186405 23.2533272 26.5171626 23.2533272 26.5166749 23.731854 24.7035414 25.672302 17.3675945 28.4795614 16.6393168 28.8400418 15.2242239 26.0488796 15.9481115 26.9952016 12.3672094 27.0054453 12.330137 27.3337313 11.0926014 23.6879525 10.1453038 23.6864891 10.1453038 23.6786844 10.1443282 19.84169 9.14678776 19.5124285 10.3843233 22.8357749 11.2491836 22.826019 11.286256 21.2645876 17.1890616 16.025183 18.5480581 17.7412454 12.061362 18.2587957 10.1009145 18.5865939 8.86289112 18.5943986 8.83508686"></polygon>
                </g>
            </g>
        </g>
    </g>
</svg>