<?xml version="1.0" encoding="UTF-8"?>
<svg width="65px" height="38px" viewBox="0 0 65 38" version="1.1" xmlns="http://www.w3.org/2000/svg" xmlns:xlink="http://www.w3.org/1999/xlink">
    <title>编组 17</title>
    <g id="页面-1" stroke="none" stroke-width="1" fill="none" fill-rule="evenodd">
        <g id="CircleSwap流动性挖矿备份-10" transform="translate(-1450.000000, -1668.000000)">
            <g id="编组-14" transform="translate(975.000000, 1636.000000)">
                <g id="编组-17" transform="translate(475.000000, 32.000000)">
                    <g id="编组备份-3" transform="translate(27.000000, 0.000000)" fill-rule="nonzero">
                        <path d="M19,19 L0,19 C0,29.4945312 8.50546875,38 19,38 C29.4945312,38 38,29.4945312 38,19 C38,8.50546875 29.4945312,0 19,0 C8.50546875,0 0,8.50546875 0,19 L19,19 Z" id="路径" fill="#1BA27A"></path>
                        <polygon id="路径" fill="#FFFFFF" points="27.9099609 9.57421875 9.91933594 9.57421875 9.91933594 13.9271484 16.7585938 13.9271484 16.7585938 20.3099609 21.0892578 20.3099609 21.0892578 13.9271484 27.9099609 13.9271484"></polygon>
                        <path d="M30.4371094,19.3228516 C30.4371094,17.8978516 25.3085938,16.7585937 18.9628906,16.7585937 C12.6171875,16.7585937 7.48867188,17.9164062 7.48867188,19.3228516 C7.48867188,20.5771484 11.4779297,21.6236328 16.7623047,21.85 L16.7623047,31.0085938 L21.0929688,31.0085938 L21.0929688,21.85 C26.4107422,21.6236328 30.4371094,20.5771484 30.4371094,19.3228516 L30.4371094,19.3228516 Z M18.9628906,20.9964844 C13.3185547,20.9964844 8.73925781,20.1021484 8.73925781,19 C8.73925781,17.8978516 13.3185547,17.0035156 18.9628906,17.0035156 C24.6072266,17.0035156 29.1865234,17.8978516 29.1865234,19 C29.1828125,20.1021484 24.6035156,20.9964844 18.9628906,20.9964844 Z" id="形状" fill="#FFFFFF"></path>
                    </g>
                    <circle id="椭圆形备份" fill="#FFFFFF" cx="20" cy="19" r="19"></circle>
                    <g id="编组-3备份-4">
                        <circle id="椭圆形" fill="#454C6E" cx="19" cy="19" r="19"></circle>
                        <g id="编组" transform="translate(12.000000, 8.000000)" fill-rule="nonzero">
                            <path d="M7.26215718,12.1496963 C9.22809618,10.698821 10.1519801,9.28117185 10.2272727,7.90782422 C10.2486656,2.15969989 6.53164433,0 6.53164433,0 C7.35884271,5.21650589 2.58902349,8.92675956 2.58902349,8.92675956 C2.58902349,8.92675956 2.59976633,8.93783494 2.59976633,8.94891033 C1.00982659,10.3222579 0,12.3822794 0,14.6748839 C0,17.1336191 1.1602263,19.3043944 2.93279425,20.6666667 C2.8898229,19.348696 3.84593531,14.6638085 7.26215718,12.1496963 Z" id="路径" fill="#FFFFFF"></path>
                            <path d="M12.4576557,9.33333333 C12.3278339,10.2419584 11.819365,12.5243382 10.2290475,13.8656419 C8.23844604,15.5314546 5.3390917,18.4628523 5.45809505,21.6322232 C6.16129666,21.8593794 6.90777222,22 7.69752172,22 C11.7328171,22 15,18.7332764 15,14.6985482 C14.9891815,12.567606 13.9722438,10.6638201 12.4576557,9.33333333 Z" id="路径" fill="#29A8DF"></path>
                        </g>
                    </g>
                </g>
            </g>
        </g>
    </g>
</svg>