<?xml version="1.0" encoding="UTF-8"?>
<svg width="64px" height="38px" viewBox="0 0 64 38" version="1.1" xmlns="http://www.w3.org/2000/svg" xmlns:xlink="http://www.w3.org/1999/xlink">
    <title>编组 15</title>
    <g id="页面-1" stroke="none" stroke-width="1" fill="none" fill-rule="evenodd">
        <g id="CircleSwap流动性挖矿备份-9" transform="translate(-1338.000000, -1365.000000)">
            <g id="编组-15" transform="translate(1338.000000, 1365.000000)">
                <g id="编组" transform="translate(26.000000, 0.000000)" fill-rule="nonzero">
                    <path d="M19,19 L0,19 C0,29.4945312 8.50546875,38 19,38 C29.4945312,38 38,29.4945312 38,19 C38,8.50546875 29.4945312,0 19,0 C8.50546875,0 0,8.50546875 0,19 L19,19 Z" id="路径" fill="#1BA27A"></path>
                    <polygon id="路径" fill="#FFFFFF" points="27.9099609 9.57421875 9.91933594 9.57421875 9.91933594 13.9271484 16.7585938 13.9271484 16.7585938 20.3099609 21.0892578 20.3099609 21.0892578 13.9271484 27.9099609 13.9271484"></polygon>
                    <path d="M30.4371094,19.3228516 C30.4371094,17.8978516 25.3085938,16.7585937 18.9628906,16.7585937 C12.6171875,16.7585937 7.48867188,17.9164062 7.48867188,19.3228516 C7.48867188,20.5771484 11.4779297,21.6236328 16.7623047,21.85 L16.7623047,31.0085938 L21.0929688,31.0085938 L21.0929688,21.85 C26.4107422,21.6236328 30.4371094,20.5771484 30.4371094,19.3228516 L30.4371094,19.3228516 Z M18.9628906,20.9964844 C13.3185547,20.9964844 8.73925781,20.1021484 8.73925781,19 C8.73925781,17.8978516 13.3185547,17.0035156 18.9628906,17.0035156 C24.6072266,17.0035156 29.1865234,17.8978516 29.1865234,19 C29.1828125,20.1021484 24.6035156,20.9964844 18.9628906,20.9964844 Z" id="形状" fill="#FFFFFF"></path>
                </g>
                <circle id="椭圆形" fill="#FFFFFF" cx="20" cy="19" r="19"></circle>
                <g id="编组-14">
                    <circle id="椭圆形" fill="#00D9C7" cx="19" cy="19" r="19"></circle>
                    <g id="编组-7" transform="translate(8.000000, 11.000000)" fill="#FFFFFF" fill-rule="nonzero">
                        <path d="M22,0 C20.5428536,2.11461619 18.0897504,3.38471984 15.4967741,3.39999999 L13.103504,3.39999999 C12.050465,3.39999999 11.1299581,4.09515782 10.8629888,5.09201517 L8.64516127,13.3733333 L8.64516127,13.3733333 C8.02534162,15.4035383 6.1775322,16.8718691 4,17 L7.71612902,3.39999999 C8.32200656,1.3974456 10.1485474,0.0214003969 12.2451613,0 L22,0 Z" id="形状备份-10"></path>
                        <path d="M21,4 L19.4915854,9.56894681 C18.9395681,11.606154 17.1993596,13 15.2367367,13 L10,13 C11.3700181,10.8373795 13.6764413,9.5564851 16.1095262,9.56894681 L16.6360527,7.65979007 C17.2153484,5.61002516 18.9526704,4.12921951 21,4 Z" id="路径备份-10" opacity="0.5"></path>
                        <path d="M8,0 C7.43678004,1.76904009 5.52382924,2.99994108 3.34328358,3 L0,3 C0.709515456,1.20847229 2.70147311,7.22630815e-05 4.89552239,0 L8,0 Z" id="路径备份-11"></path>
                    </g>
                </g>
            </g>
        </g>
    </g>
</svg>