<?xml version="1.0" encoding="UTF-8"?>
<svg width="50px" height="40px" viewBox="0 0 50 40" version="1.1" xmlns="http://www.w3.org/2000/svg" xmlns:xlink="http://www.w3.org/1999/xlink">
    <title>资源 4</title>
    <g id="页面-1" stroke="none" stroke-width="1" fill="none" fill-rule="evenodd">
        <g id="CircleSwap-兑换-未连接-填写信息备份" transform="translate(-110.000000, -40.000000)" fill-rule="nonzero">
            <g id="资源-4" transform="translate(110.000000, 40.000000)">
                <polygon id="路径" fill="#30D683" points="24.58 19.435 24.42 19.565 24.57 19.435"></polygon>
                <path d="M40.0748752,27.3084929 C39.4592346,29.5002185 38.2362729,31.4629578 35.0166389,31.4629578 C33.5466573,31.5335963 32.1266276,30.9293121 31.1730449,29.8273417 C30.6156406,29.0994925 30.1663894,28.2898625 29.9084859,26 C29.6339434,29.6228897 28.7520799,32.9595465 25.9816972,35.6828473 C25.6655574,35.9936144 25.3327787,36.2962034 25,36.5742581 C27.7830273,38.8884894 31.3399693,40.1064344 34.9833611,39.9926958 C42.4708819,39.9926958 48.5524126,35.9036555 50,27.3084929 L40.0748752,27.3084929 Z" id="路径" fill="#5DF9DB"></path>
                <path d="M49,12.6381861 L39.2409357,12.6381861 C38.6350877,10.4554696 37.4315789,8.50079817 34.2549708,8.50079817 C32.8109614,8.43176268 31.4165649,9.03355406 30.4807018,10.1296911 C29.6046784,11.2780605 28.9988304,12.6381861 28.9988304,19.7157257 C28.9988304,20.8640952 28.9988304,21.8658643 29.0479532,22.737322 C28.9824561,27.3389444 28.4912281,31.6066437 25.1590643,34.9540186 C24.8807018,35.2309304 24.594152,35.4996977 24.2994152,35.768465 L24.1766082,35.8743431 L24.1766082,35.8743431 C21.4985365,37.9894993 18.1548388,39.0944098 14.7368421,38.9936729 C7.36842105,38.9936729 1.38362573,34.9214407 0,26.3616086 L9.68538012,26.3616086 C10.2912281,28.5361806 11.4947368,30.4989966 14.6631579,30.4989966 C20.394152,30.4989966 19.4362573,23.5354795 19.4362573,19.7401591 C19.4362573,13.916867 19.2725146,8.46822031 23.3824561,4.38784364 C26.2171859,1.47829605 30.1508533,-0.11179696 34.2222222,0.00612178646 C41.6070175,0.00612178646 47.5754386,4.08649846 49,12.6381861 Z" id="路径" fill="#30D683"></path>
                <circle id="椭圆形" fill="#30D683" cx="17.5" cy="3.5" r="3.5"></circle>
                <circle id="椭圆形" fill="#30D683" cx="9.5" cy="2.5" r="2.5"></circle>
                <circle id="椭圆形" fill="#30D683" cx="4.5" cy="5.5" r="1.5"></circle>
                <circle id="椭圆形" fill="#30D683" cx="2" cy="9" r="1"></circle>
                <circle id="椭圆形" fill="#30D683" cx="0.5" cy="12.5" r="1"></circle>
            </g>
        </g>
    </g>
</svg>