<svg xmlns="http://www.w3.org/2000/svg" viewBox="0 0 51.96 42.44"><defs><style>.cls-1{fill:aqua;}.cls-2{fill:#1c6ee5;}.cls-3{opacity:0.3;}</style></defs><title>资源 26</title><g id="图层_2" data-name="图层 2"><g id="图层_1-2" data-name="图层 1"><path d="M26.05,21.17l-.14.11.13-.12Z"/><path class="cls-1" d="M41.7,29.07c-.63,2.31-1.9,4.38-5.25,4.38a4.89,4.89,0,0,1-4-1.73c-.58-.76-1-1.62-1.32-4C30.88,31.51,30,35,27.1,37.9c-.33.32-.67.64-1,.94a15.27,15.27,0,0,0,10.32,3.6c7.78,0,14.06-4.32,15.56-13.37Z"/><path class="cls-2" d="M51.64,14H41.38c-.63-2.3-1.9-4.37-5.24-4.37a4.89,4.89,0,0,0-4,1.72c-.93,1.21-1.56,2.65-1.56,10.15,0,1.21,0,2.27.05,3.19-.07,4.87-.59,9.39-4.1,12.9-.29.29-.59.58-.9.84l-.13.12,0,0a15.3,15.3,0,0,1-9.94,3.3C7.78,41.86,1.5,37.54,0,28.49H10.26c.63,2.3,1.9,4.38,5.24,4.38,6.05,0,5-7.37,5-11.38,0-6.17-.17-11.93,4.15-16.25A15.28,15.28,0,0,1,36.09.63C43.86.63,50.15,5,51.64,14Z"/><g class="cls-3"><path class="cls-2" d="M26.21,3.9a15.64,15.64,0,0,0-1.5,1.34c-2.63,2.63-3.6,5.79-3.95,9.26a6.75,6.75,0,0,0-1.28-3.78A4.9,4.9,0,0,0,15.5,9c-3.34,0-4.61,2.07-5.24,4.38H0C1.5,4.32,7.78,0,15.56,0A15.24,15.24,0,0,1,26.21,3.9Z"/></g></g></g></svg>
